<?xml version="1.0" encoding="UTF-8" standalone="no"?>
<svg
   version="1.1"
   viewBox="0 0 569.96197 103.308"
   width="569.96198"
   height="103.308"
   filter="invert(93%) hue-rotate(180deg)"
   id="svg66"
   sodipodi:docname="use_case_dark.svg"
   inkscape:version="1.2.2 (b0a8486541, 2022-12-01)"
   xmlns:inkscape="http://www.inkscape.org/namespaces/inkscape"
   xmlns:sodipodi="http://sodipodi.sourceforge.net/DTD/sodipodi-0.dtd"
   xmlns="http://www.w3.org/2000/svg"
   xmlns:svg="http://www.w3.org/2000/svg">
  <sodipodi:namedview
     id="namedview68"
     pagecolor="#ffffff"
     bordercolor="#000000"
     borderopacity="0.25"
     inkscape:showpageshadow="2"
     inkscape:pageopacity="0.0"
     inkscape:pagecheckerboard="0"
     inkscape:deskcolor="#d1d1d1"
     showgrid="false"
     inkscape:zoom="2.8284271"
     inkscape:cx="312.01087"
     inkscape:cy="30.759145"
     inkscape:window-width="2560"
     inkscape:window-height="1352"
     inkscape:window-x="0"
     inkscape:window-y="44"
     inkscape:window-maximized="1"
     inkscape:current-layer="svg66" />
  <!-- svg-source:excalidraw -->
  <defs
     id="defs4">
    <style
       class="style-fonts"
       id="style2">
      @font-face {
        font-family: &quot;Virgil&quot;;
        src: url(&quot;https://file%2B.vscode-resource.vscode-cdn.net/home/gm/.vscode/extensions/pomdtr.excalidraw-editor-3.5.1/public//dist/excalidraw-assets/Virgil.woff2&quot;);
      }
      @font-face {
        font-family: &quot;Cascadia&quot;;
        src: url(&quot;https://file%2B.vscode-resource.vscode-cdn.net/home/gm/.vscode/extensions/pomdtr.excalidraw-editor-3.5.1/public//dist/excalidraw-assets/Cascadia.woff2&quot;);
      }
    </style>
  </defs>
  <rect
     style="fill:#1d1e20;stroke:none;stroke-width:6.70512;stroke-dasharray:none"
     id="rect11632"
     width="569.96198"
     height="103.308"
     x="0"
     y="0" />
  <g
     stroke-linecap="round"
     transform="translate(10,11.307692)"
     id="g8">
    <path
       d="m 20.5,0 m 0,0 c 19.42,1.59 38.37,-0.21 78,0 m -78,0 c 28.5,-0.07 56.68,-0.48 78,0 m 0,0 c 13.21,-0.5 22.09,5.24 20.5,20.5 M 98.5,0 c 13.4,1.94 19.46,8.36 20.5,20.5 m 0,0 c -0.91,15.67 -0.16,31.24 0,41 m 0,-41 c -0.04,11.21 -0.41,21.72 0,41 m 0,0 C 117.33,76.88 111.26,81.4 98.5,82 M 119,61.5 c 1.74,14.35 -5.79,22.52 -20.5,20.5 m 0,0 c -24.71,1.82 -45.15,-1.61 -78,0 m 78,0 c -21.6,-0.69 -42.3,-0.48 -78,0 m 0,0 C 5.56,83.05 1.77,75.66 0,61.5 M 20.5,82 C 5.42,79.79 -1.36,74.25 0,61.5 m 0,0 C 2.01,48.94 0.2,32.31 0,20.5 m 0,41 C 0.01,48.44 -0.03,37.15 0,20.5 m 0,0 C 1.59,7.3 8.26,-1.52 20.5,0 M 0,20.5 C 0.87,4.83 9.12,-1.58 20.5,0"
       stroke="#1e1e1e"
       stroke-width="1"
       fill="none"
       id="path6"
       style="stroke:#ffffff;stroke-opacity:1" />
  </g>
  <g
     transform="translate(48.620026,39.807692)"
     id="g12">
    <text
       xml:space="preserve"
       style="font-style:normal;font-variant:normal;font-weight:normal;font-stretch:normal;font-size:16px;font-family:'Humor Sans';-inkscape-font-specification:'Humor Sans';fill:#ffffff;fill-opacity:1"
       x="-3.0654175"
       y="16.740952"
       id="text334"><tspan
         sodipodi:role="line"
         id="tspan332"
         x="-3.0654175"
         y="16.740952"
         style="font-size:16px;fill:#ffffff;fill-opacity:1">USER</tspan></text>
  </g>
  <g
     stroke-linecap="round"
     id="g26">
    <g
       transform="translate(142,52.538462)"
       id="g16">
      <path
         d="M -0.41,0.95 C 9.73,1.07 50.62,0.59 61.24,0.58 M 1.58,0.4 C 12.04,0.18 53.14,-1 63.39,-1.24"
         stroke="#1e1e1e"
         stroke-width="1"
         fill="none"
         id="path14"
         style="stroke:#ffffff;stroke-opacity:1" />
    </g>
    <g
       transform="translate(142,52.538462)"
       id="g20">
      <path
         d="M 37.06,7.98 C 45.73,7.92 55.51,4.1 62.38,0.05 M 36.03,9.83 C 45.73,5.36 54.9,1.31 63.93,-1.34"
         stroke="#1e1e1e"
         stroke-width="1"
         fill="none"
         id="path18"
         style="stroke:#ffffff;stroke-opacity:1" />
    </g>
    <g
       transform="translate(142,52.538462)"
       id="g24">
      <path
         d="m 36.53,-12.54 c 8.83,6.77 18.78,9.76 25.85,12.59 M 35.5,-10.68 c 9.98,3.04 19.34,6.51 28.43,9.34"
         stroke="#1e1e1e"
         stroke-width="1"
         fill="none"
         id="path22"
         style="stroke:#ffffff;stroke-opacity:1" />
    </g>
  </g>
  <mask
     id="mask28" />
  <g
     stroke-linecap="round"
     transform="translate(219.42308,10)"
     id="g32">
    <path
       d="m 20.5,0 m 0,0 c 14.43,-0.36 32.62,-1.76 78,0 m -78,0 c 30.42,0.54 58.88,-0.55 78,0 m 0,0 c 14.79,-1.84 20.35,6.96 20.5,20.5 M 98.5,0 c 15.05,2.05 19.46,8.18 20.5,20.5 m 0,0 c 1.01,8.89 2,19.73 0,41 m 0,-41 c -0.13,10.17 -0.16,21.86 0,41 m 0,0 C 117.1,75.64 112.46,83.08 98.5,82 M 119,61.5 C 117.77,76.54 112.46,83.52 98.5,82 m 0,0 c -24.55,-0.05 -45.25,-1.28 -78,0 m 78,0 c -19.19,1.02 -37.17,-0.2 -78,0 m 0,0 C 6.85,80.11 -1.33,77.05 0,61.5 M 20.5,82 C 7.27,80.27 -0.96,74.46 0,61.5 m 0,0 C -1.94,48.96 -1.36,32.47 0,20.5 m 0,41 c -0.28,-7.93 -0.7,-15.71 0,-41 m 0,0 C 1.55,8.05 5.43,0.55 20.5,0 M 0,20.5 C 0.65,7.99 7.73,1.72 20.5,0"
       stroke="#1e1e1e"
       stroke-width="1"
       fill="none"
       id="path30"
       style="stroke:#ffffff;stroke-opacity:1" />
  </g>
  <g
     transform="translate(225.80314,26)"
     id="g38">
    <text
       xml:space="preserve"
       style="font-style:normal;font-variant:normal;font-weight:normal;font-stretch:normal;font-size:16px;font-family:'Humor Sans';-inkscape-font-specification:'Humor Sans';fill:#ffffff;fill-opacity:1"
       x="52.57402"
       y="17.69389"
       id="text440"><tspan
         sodipodi:role="line"
         x="52.57402"
         y="17.69389"
         id="tspan442"
         style="font-size:16px;text-align:center;text-anchor:middle;fill:#ffffff;fill-opacity:1">THIRD-PARTY</tspan><tspan
         sodipodi:role="line"
         x="52.57402"
         y="37.69389"
         id="tspan446"
         style="font-size:16px;text-align:center;text-anchor:middle;fill:#ffffff;fill-opacity:1">APPLICATION</tspan></text>
    <text
       xml:space="preserve"
       style="font-style:normal;font-variant:normal;font-weight:normal;font-stretch:normal;font-size:16px;font-family:'Humor Sans';-inkscape-font-specification:'Humor Sans';fill:#ffffff;fill-opacity:1"
       x="274.31726"
       y="17.293146"
       id="text450"><tspan
         sodipodi:role="line"
         id="tspan448"
         x="274.31726"
         y="17.293146"
         style="font-size:16px;text-align:center;text-anchor:middle;fill:#ffffff;fill-opacity:1">SERVICE</tspan><tspan
         sodipodi:role="line"
         x="274.31726"
         y="37.293144"
         id="tspan452"
         style="font-size:16px;text-align:center;text-anchor:middle;fill:#ffffff;fill-opacity:1">PROVIDER</tspan></text>
  </g>
  <g
     stroke-linecap="round"
     transform="translate(440.96154,10.538462)"
     id="g42">
    <path
       d="m 20.5,0 m 0,0 c 21.78,1.71 46.43,-0.57 78,0 m -78,0 c 28.14,0.95 54.9,-0.82 78,0 m 0,0 c 12.89,0.63 20.87,7.42 20.5,20.5 M 98.5,0 c 14.14,0.94 18.81,5.72 20.5,20.5 m 0,0 c -0.43,11.25 -0.62,22.89 0,41 m 0,-41 c -0.83,10.25 0.55,21.46 0,41 m 0,0 C 117.88,74.07 112.06,83.22 98.5,82 M 119,61.5 c 0.01,13.19 -5.84,18.75 -20.5,20.5 m 0,0 c -19.37,1.22 -36.66,-2.02 -78,0 m 78,0 c -16.35,0.65 -33.24,0.94 -78,0 m 0,0 C 6.94,82.3 1.66,75.81 0,61.5 M 20.5,82 C 6.84,83.19 -0.32,75.5 0,61.5 m 0,0 C -1.1,46.93 -1.07,28.76 0,20.5 m 0,41 c -0.2,-7.87 -0.78,-16.42 0,-41 m 0,0 C -1.57,7.91 7.86,-1.5 20.5,0 M 0,20.5 C 1.25,5.42 5.27,-1.75 20.5,0"
       stroke="#1e1e1e"
       stroke-width="1"
       fill="none"
       id="path40"
       style="stroke:#ffffff;stroke-opacity:1" />
  </g>
  <g
     stroke-linecap="round"
     id="g62">
    <g
       transform="translate(355.89205,52.28934)"
       id="g52">
      <path
         d="M -0.84,0.57 C 9.43,0.58 52.31,-0.31 62.8,-0.27 M 0.91,-0.18 c 10.06,0.22 51.15,1.46 61.2,1.3"
         stroke="#1e1e1e"
         stroke-width="1"
         fill="none"
         id="path50"
         style="stroke:#ffffff;stroke-opacity:1" />
    </g>
    <g
       transform="translate(355.89205,52.28934)"
       id="g56">
      <path
         d="M 34.76,11.9 C 44.59,7.02 57.57,2.48 61.34,1.45 M 33.45,11.16 C 42.66,8.21 53.09,4.46 62.74,1.75"
         stroke="#1e1e1e"
         stroke-width="1"
         fill="none"
         id="path54"
         style="stroke:#ffffff;stroke-opacity:1" />
    </g>
    <g
       transform="translate(355.89205,52.28934)"
       id="g60">
      <path
         d="m 34.98,-8.62 c 9.69,3.24 22.58,6.83 26.36,10.07 M 33.67,-9.36 c 8.99,3.84 19.35,6.88 29.07,11.11"
         stroke="#1e1e1e"
         stroke-width="1"
         fill="none"
         id="path58"
         style="stroke:#ffffff;stroke-opacity:1" />
    </g>
  </g>
  <mask
     id="mask64" />
</svg>
